<?xml version="1.0" encoding="UTF-8"?>
<svg width="36px" height="36px" viewBox="0 0 36 36" version="1.1" xmlns="http://www.w3.org/2000/svg" xmlns:xlink="http://www.w3.org/1999/xlink">
    <title>account</title>
    <g id="Page-1" stroke="none" stroke-width="1" fill="none" fill-rule="evenodd">
        <g id="account" fill="#E0E1E2" fill-rule="nonzero">
            <path d="M6.39,28.125 C8.28,26.805 10.155,25.7925 12.015,25.0875 C13.875,24.3825 15.87,24.03 18,24.03 C20.13,24.03 22.1325,24.3825 24.0075,25.0875 C25.8825,25.7925 27.765,26.805 29.655,28.125 C30.975,26.505 31.9125,24.87 32.4675,23.22 C33.0225,21.57 33.3,19.83 33.3,18 C33.3,13.65 31.8375,10.0125 28.9125,7.0875 C25.9875,4.1625 22.35,2.7 18,2.7 C13.65,2.7 10.0125,4.1625 7.0875,7.0875 C4.1625,10.0125 2.7,13.65 2.7,18 C2.7,19.83 2.985,21.57 3.555,23.22 C4.125,24.87 5.07,26.505 6.39,28.125 Z M18,19.35 C16.26,19.35 14.7975,18.7575 13.6125,17.5725 C12.4275,16.3875 11.835,14.925 11.835,13.185 C11.835,11.445 12.4275,9.9825 13.6125,8.7975 C14.7975,7.6125 16.26,7.02 18,7.02 C19.74,7.02 21.2025,7.6125 22.3875,8.7975 C23.5725,9.9825 24.165,11.445 24.165,13.185 C24.165,14.925 23.5725,16.3875 22.3875,17.5725 C21.2025,18.7575 19.74,19.35 18,19.35 Z M18,36 C15.54,36 13.215,35.5275 11.025,34.5825 C8.835,33.6375 6.9225,32.3475 5.2875,30.7125 C3.6525,29.0775 2.3625,27.165 1.4175,24.975 C0.4725,22.785 0,20.46 0,18 C0,15.51 0.4725,13.1775 1.4175,11.0025 C2.3625,8.8275 3.6525,6.9225 5.2875,5.2875 C6.9225,3.6525 8.835,2.3625 11.025,1.4175 C13.215,0.4725 15.54,0 18,0 C20.49,0 22.8225,0.4725 24.9975,1.4175 C27.1725,2.3625 29.0775,3.6525 30.7125,5.2875 C32.3475,6.9225 33.6375,8.8275 34.5825,11.0025 C35.5275,13.1775 36,15.51 36,18 C36,20.46 35.5275,22.785 34.5825,24.975 C33.6375,27.165 32.3475,29.0775 30.7125,30.7125 C29.0775,32.3475 27.1725,33.6375 24.9975,34.5825 C22.8225,35.5275 20.49,36 18,36 Z M18,33.3 C19.65,33.3 21.2625,33.06 22.8375,32.58 C24.4125,32.1 25.965,31.26 27.495,30.06 C25.965,28.98 24.405,28.155 22.815,27.585 C21.225,27.015 19.62,26.73 18,26.73 C16.38,26.73 14.775,27.015 13.185,27.585 C11.595,28.155 10.035,28.98 8.505,30.06 C10.035,31.26 11.5875,32.1 13.1625,32.58 C14.7375,33.06 16.35,33.3 18,33.3 Z M18,16.65 C19.02,16.65 19.8525,16.3275 20.4975,15.6825 C21.1425,15.0375 21.465,14.205 21.465,13.185 C21.465,12.165 21.1425,11.3325 20.4975,10.6875 C19.8525,10.0425 19.02,9.72 18,9.72 C16.98,9.72 16.1475,10.0425 15.5025,10.6875 C14.8575,11.3325 14.535,12.165 14.535,13.185 C14.535,14.205 14.8575,15.0375 15.5025,15.6825 C16.1475,16.3275 16.98,16.65 18,16.65 Z" id="Shape"></path>
        </g>
    </g>
</svg>