<?xml version="1.0" encoding="UTF-8"?>
<svg width="36px" height="36px" viewBox="0 0 36 36" version="1.1" xmlns="http://www.w3.org/2000/svg" xmlns:xlink="http://www.w3.org/1999/xlink">
    <title>explore</title>
    <g id="Page-1" stroke="none" stroke-width="1" fill="none" fill-rule="evenodd">
        <g id="explore" fill="#E0E1E2" fill-rule="nonzero">
            <path d="M8.235,27.765 L21.285,21.33 L27.72,8.28 L14.67,14.715 L8.235,27.765 Z M18,19.8 C17.49,19.8 17.0625,19.6275 16.7175,19.2825 C16.3725,18.9375 16.2,18.51 16.2,18 C16.2,17.49 16.3725,17.0625 16.7175,16.7175 C17.0625,16.3725 17.49,16.2 18,16.2 C18.51,16.2 18.9375,16.3725 19.2825,16.7175 C19.6275,17.0625 19.8,17.49 19.8,18 C19.8,18.51 19.6275,18.9375 19.2825,19.2825 C18.9375,19.6275 18.51,19.8 18,19.8 Z M18,36 C15.54,36 13.215,35.5275 11.025,34.5825 C8.835,33.6375 6.9225,32.3475 5.2875,30.7125 C3.6525,29.0775 2.3625,27.165 1.4175,24.975 C0.4725,22.785 0,20.46 0,18 C0,15.51 0.4725,13.17 1.4175,10.98 C2.3625,8.79 3.6525,6.885 5.2875,5.265 C6.9225,3.645 8.835,2.3625 11.025,1.4175 C13.215,0.4725 15.54,0 18,0 C20.49,0 22.83,0.4725 25.02,1.4175 C27.21,2.3625 29.115,3.645 30.735,5.265 C32.355,6.885 33.6375,8.79 34.5825,10.98 C35.5275,13.17 36,15.51 36,18 C36,20.46 35.5275,22.785 34.5825,24.975 C33.6375,27.165 32.355,29.0775 30.735,30.7125 C29.115,32.3475 27.21,33.6375 25.02,34.5825 C22.83,35.5275 20.49,36 18,36 Z M18,33.3 C22.26,33.3 25.875,31.8075 28.845,28.8225 C31.815,25.8375 33.3,22.23 33.3,18 C33.3,13.74 31.815,10.125 28.845,7.155 C25.875,4.185 22.26,2.7 18,2.7 C13.77,2.7 10.1625,4.185 7.1775,7.155 C4.1925,10.125 2.7,13.74 2.7,18 C2.7,22.23 4.1925,25.8375 7.1775,28.8225 C10.1625,31.8075 13.77,33.3 18,33.3 Z" id="Shape"></path>
        </g>
    </g>
</svg>