<?xml version="1.0" encoding="UTF-8"?>
<svg width="20px" height="19px" viewBox="0 0 20 19" version="1.1" xmlns="http://www.w3.org/2000/svg" xmlns:xlink="http://www.w3.org/1999/xlink">
    <title>Shape</title>
    <g id="Page-1" stroke="none" stroke-width="1" fill="none" fill-rule="evenodd">
        <g id="hide" fill="#D83010" fill-rule="nonzero">
            <path d="M13.3863636,10.1363636 L12.3863636,9.13636364 C12.780303,8.06060606 12.5757576,7.16666667 11.7727273,6.45454545 C10.969697,5.74242424 10.0984848,5.56060606 9.15909091,5.90909091 L8.15909091,4.90909091 C8.41666667,4.74242424 8.70454545,4.62121212 9.02272727,4.54545455 C9.34090909,4.46969697 9.66666667,4.43181818 10,4.43181818 C11.0757576,4.43181818 11.9886364,4.80681818 12.7386364,5.55681818 C13.4886364,6.30681818 13.8636364,7.21969697 13.8636364,8.29545455 C13.8636364,8.62878788 13.8219697,8.95833333 13.7386364,9.28409091 C13.655303,9.60984848 13.5378788,9.89393939 13.3863636,10.1363636 L13.3863636,10.1363636 Z M16.3181818,13.0681818 L15.4090909,12.1590909 C16.1515152,11.6136364 16.7992424,11.0037879 17.3522727,10.3295455 C17.905303,9.65530303 18.3106061,8.97727273 18.5681818,8.29545455 C17.8106061,6.61363636 16.6742424,5.28409091 15.1590909,4.30681818 C13.6439394,3.32954545 12,2.84090909 10.2272727,2.84090909 C9.59090909,2.84090909 8.93939394,2.90151515 8.27272727,3.02272727 C7.60606061,3.14393939 7.08333333,3.28787879 6.70454545,3.45454545 L5.65909091,2.38636364 C6.18939394,2.14393939 6.86742424,1.93181818 7.69318182,1.75 C8.51893939,1.56818182 9.32575758,1.47727273 10.1136364,1.47727273 C12.280303,1.47727273 14.2613636,2.09469697 16.0568182,3.32954545 C17.8522727,4.56439394 19.1666667,6.21969697 20,8.29545455 C19.6060606,9.26515152 19.0984848,10.1515152 18.4772727,10.9545455 C17.8560606,11.7575758 17.1363636,12.4621212 16.3181818,13.0681818 Z M17.6363636,18.2045455 L13.8181818,14.4545455 C13.2878788,14.6666667 12.6893939,14.8295455 12.0227273,14.9431818 C11.3560606,15.0568182 10.6818182,15.1136364 10,15.1136364 C7.78787879,15.1136364 5.78030303,14.4962121 3.97727273,13.2613636 C2.17424242,12.0265152 0.848484848,10.3712121 0,8.29545455 C0.303030303,7.50757576 0.723484848,6.73863636 1.26136364,5.98863636 C1.79924242,5.23863636 2.45454545,4.52272727 3.22727273,3.84090909 L0.363636364,0.977272727 L1.31818182,0 L18.5227273,17.2045455 L17.6363636,18.2045455 Z M4.15909091,4.79545455 C3.59848485,5.20454545 3.05681818,5.74242424 2.53409091,6.40909091 C2.01136364,7.07575758 1.63636364,7.70454545 1.40909091,8.29545455 C2.18181818,9.97727273 3.34469697,11.3068182 4.89772727,12.2840909 C6.45075758,13.2613636 8.21212121,13.75 10.1818182,13.75 C10.6818182,13.75 11.1742424,13.719697 11.6590909,13.6590909 C12.1439394,13.5984848 12.5075758,13.5075758 12.75,13.3863636 L11.2954545,11.9318182 C11.1287879,12.0075758 10.9242424,12.0643939 10.6818182,12.1022727 C10.4393939,12.1401515 10.2121212,12.1590909 10,12.1590909 C8.93939394,12.1590909 8.03030303,11.7878788 7.27272727,11.0454545 C6.51515152,10.3030303 6.13636364,9.38636364 6.13636364,8.29545455 C6.13636364,8.06818182 6.15530303,7.84090909 6.19318182,7.61363636 C6.23106061,7.38636364 6.28787879,7.18181818 6.36363636,7 L4.15909091,4.79545455 Z" id="Shape"></path>
        </g>
    </g>
</svg>