<?xml version="1.0" encoding="UTF-8"?>
<svg width="20px" height="10px" viewBox="0 0 20 10" version="1.1" xmlns="http://www.w3.org/2000/svg" xmlns:xlink="http://www.w3.org/1999/xlink">
    <title>link</title>
    <g id="Page-1" stroke="none" stroke-width="1" fill="none" fill-rule="evenodd">
        <g id="link" fill="#33A9FE" fill-rule="nonzero">
            <path d="M9.25,10 L5,10 C3.61666667,10 2.4375,9.5125 1.4625,8.5375 C0.4875,7.5625 0,6.38333333 0,5 C0,3.61666667 0.4875,2.4375 1.4625,1.4625 C2.4375,0.4875 3.61666667,0 5,0 L9.25,0 L9.25,1.5 L5,1.5 C4.03333333,1.5 3.20833333,1.84166667 2.525,2.525 C1.84166667,3.20833333 1.5,4.03333333 1.5,5 C1.5,5.96666667 1.84166667,6.79166667 2.525,7.475 C3.20833333,8.15833333 4.03333333,8.5 5,8.5 L9.25,8.5 L9.25,10 Z M6.125,5.75 L6.125,4.25 L13.875,4.25 L13.875,5.75 L6.125,5.75 Z M10.75,10 L10.75,8.5 L15,8.5 C15.9666667,8.5 16.7916667,8.15833333 17.475,7.475 C18.1583333,6.79166667 18.5,5.96666667 18.5,5 C18.5,4.03333333 18.1583333,3.20833333 17.475,2.525 C16.7916667,1.84166667 15.9666667,1.5 15,1.5 L10.75,1.5 L10.75,0 L15,0 C16.3833333,0 17.5625,0.4875 18.5375,1.4625 C19.5125,2.4375 20,3.61666667 20,5 C20,6.38333333 19.5125,7.5625 18.5375,8.5375 C17.5625,9.5125 16.3833333,10 15,10 L10.75,10 Z" id="Shape"></path>
        </g>
    </g>
</svg>