<?xml version="1.0" encoding="UTF-8"?>
<svg width="36px" height="36px" viewBox="0 0 36 36" version="1.1" xmlns="http://www.w3.org/2000/svg" xmlns:xlink="http://www.w3.org/1999/xlink">
    <title>login</title>
    <g id="Page-1" stroke="none" stroke-width="1" fill="none" fill-rule="evenodd">
        <g id="login" fill="#178F58" fill-rule="nonzero">
            <path d="M18.45,36 L18.45,33 L33,33 L33,3 L18.45,3 L18.45,0 L33,0 C33.8,0 34.5,0.3 35.1,0.9 C35.7,1.5 36,2.2 36,3 L36,33 C36,33.8 35.7,34.5 35.1,35.1 C34.5,35.7 33.8,36 33,36 L18.45,36 Z M14.55,26.75 L12.4,24.6 L17.5,19.5 L0,19.5 L0,16.5 L17.4,16.5 L12.3,11.4 L14.45,9.25 L23.25,18.05 L14.55,26.75 Z" id="Shape"></path>
        </g>
    </g>
</svg>