<?xml version="1.0" encoding="UTF-8"?>
<svg width="40px" height="36px" viewBox="0 0 40 36" version="1.1" xmlns="http://www.w3.org/2000/svg" xmlns:xlink="http://www.w3.org/1999/xlink">
    <title>saved-posts</title>
    <g id="Page-1" stroke="none" stroke-width="1" fill="none" fill-rule="evenodd">
        <g id="saved-posts" fill="#E0E1E2" fill-rule="nonzero">
            <path d="M3,32.625 L12.35,32.625 L12.35,3.375 L3,3.375 L3,32.625 Z M15.35,32.625 L24.65,32.625 L24.65,3.375 L15.35,3.375 L15.35,32.625 Z M27.65,32.625 L37,32.625 L37,3.375 L27.65,3.375 L27.65,32.625 Z M3,36 C2.2,36 1.5,35.6625 0.9,34.9875 C0.3,34.3125 0,33.525 0,32.625 L0,3.375 C0,2.475 0.3,1.6875 0.9,1.0125 C1.5,0.3375 2.2,0 3,0 L37,0 C37.8,0 38.5,0.3375 39.1,1.0125 C39.7,1.6875 40,2.475 40,3.375 L40,32.625 C40,33.525 39.7,34.3125 39.1,34.9875 C38.5,35.6625 37.8,36 37,36 L3,36 Z" id="Shape"></path>
        </g>
    </g>
</svg>