<?xml version="1.0" encoding="UTF-8"?>
<svg width="20px" height="14px" viewBox="0 0 20 14" version="1.1" xmlns="http://www.w3.org/2000/svg" xmlns:xlink="http://www.w3.org/1999/xlink">
    <title>show</title>
    <g id="Page-1" stroke="none" stroke-width="1" fill="none" fill-rule="evenodd">
        <g id="show" fill="#178F58" fill-rule="nonzero">
            <path d="M10,10.6818182 C11.0757576,10.6818182 11.9886364,10.3068182 12.7386364,9.55681818 C13.4886364,8.80681818 13.8636364,7.89393939 13.8636364,6.81818182 C13.8636364,5.74242424 13.4886364,4.82954545 12.7386364,4.07954545 C11.9886364,3.32954545 11.0757576,2.95454545 10,2.95454545 C8.92424242,2.95454545 8.01136364,3.32954545 7.26136364,4.07954545 C6.51136364,4.82954545 6.13636364,5.74242424 6.13636364,6.81818182 C6.13636364,7.89393939 6.51136364,8.80681818 7.26136364,9.55681818 C8.01136364,10.3068182 8.92424242,10.6818182 10,10.6818182 Z M10,9.36363636 C9.28787879,9.36363636 8.68560606,9.11742424 8.19318182,8.625 C7.70075758,8.13257576 7.45454545,7.53030303 7.45454545,6.81818182 C7.45454545,6.10606061 7.70075758,5.50378788 8.19318182,5.01136364 C8.68560606,4.51893939 9.28787879,4.27272727 10,4.27272727 C10.7121212,4.27272727 11.3143939,4.51893939 11.8068182,5.01136364 C12.2992424,5.50378788 12.5454545,6.10606061 12.5454545,6.81818182 C12.5454545,7.53030303 12.2992424,8.13257576 11.8068182,8.625 C11.3143939,9.11742424 10.7121212,9.36363636 10,9.36363636 Z M10,13.6363636 C7.78787879,13.6363636 5.78787879,13.0075758 4,11.75 C2.21212121,10.4924242 0.878787879,8.84848485 0,6.81818182 C0.878787879,4.78787879 2.21212121,3.14393939 4,1.88636364 C5.78787879,0.628787879 7.78787879,0 10,0 C12.2121212,0 14.2121212,0.628787879 16,1.88636364 C17.7878788,3.14393939 19.1212121,4.78787879 20,6.81818182 C19.1212121,8.84848485 17.7878788,10.4924242 16,11.75 C14.2121212,13.0075758 12.2121212,13.6363636 10,13.6363636 Z M10,12.2727273 C11.8333333,12.2727273 13.5189394,11.7765152 15.0568182,10.7840909 C16.594697,9.79166667 17.7651515,8.46969697 18.5681818,6.81818182 C17.7651515,5.16666667 16.594697,3.84469697 15.0568182,2.85227273 C13.5189394,1.85984848 11.8333333,1.36363636 10,1.36363636 C8.16666667,1.36363636 6.48106061,1.85984848 4.94318182,2.85227273 C3.40530303,3.84469697 2.22727273,5.16666667 1.40909091,6.81818182 C2.22727273,8.46969697 3.40530303,9.79166667 4.94318182,10.7840909 C6.48106061,11.7765152 8.16666667,12.2727273 10,12.2727273 Z" id="Shape"></path>
        </g>
    </g>
</svg>